<svg id="flag-icons-gr" viewBox="0 0 512 512" xmlns="http://www.w3.org/2000/svg">
    <path d="M0 0h512v57H0z" fill="#0d5eaf" fill-rule="evenodd"/>
    <path d="M0 57h512v57H0z" fill="#fff" fill-rule="evenodd"/>
    <path d="M0 114h512v57H0z" fill="#0d5eaf" fill-rule="evenodd"/>
    <path d="M0 171h512v57H0z" fill="#fff" fill-rule="evenodd"/>
    <path d="M0 228h512v56.9H0z" fill="#0d5eaf" fill-rule="evenodd"/>
    <path d="M0 284.9h512v57H0z" fill="#fff" fill-rule="evenodd"/>
    <path d="M0 341.9h512v57H0z" fill="#0d5eaf" fill-rule="evenodd"/>
    <path d="M0 398.9h512v57H0z" fill="#fff" fill-rule="evenodd"/>
    <path d="M0 0h284.9v284.9H0z" fill="#0d5eaf"/>
    <g fill="#fff" fill-rule="evenodd" stroke-width="1.3">
        <path d="M114 0h57v284.9h-57z"/>
        <path d="M0 114h284.9v57H0z"/>
    </g>
    <path d="M0 455h512v57H0z" fill="#0d5eaf" fill-rule="evenodd"/>
</svg>
